<svg version="1.1" xmlns="http://www.w3.org/2000/svg" xmlns:xlink="http://www.w3.org/1999/xlink" width="32" height="32" viewBox="0 0 32 32">
    <svg fill="currentColor" id="icon-myagkof-logo" width="32" height="32" viewBox="0 0 32 32" x="0" y="0">
     <path d="M26.228 15.666v-1.136c0-5.64-4.588-10.228-10.228-10.228s-10.228 4.588-10.228 10.228v1.136h-5.772v0.668c0 3.544 2.467 6.516 5.772 7.308v4.055h1.336v-3.862c0.138 0.008 0.275 0.021 0.414 0.021h16.955c0.14 0 0.276-0.013 0.414-0.021v3.862h1.336v-4.055c3.305-0.792 5.772-3.764 5.772-7.308v-0.668h-5.772zM7.108 14.53c0-4.903 3.989-8.892 8.892-8.892s8.892 3.989 8.892 8.892v1.136h-17.784v-1.136zM1.372 17.002h4.4v5.264c-2.355-0.696-4.13-2.758-4.4-5.264zM24.477 22.52h-16.955c-0.14 0-0.277-0.010-0.414-0.020v-5.498h17.784v5.498c-0.137 0.009-0.274 0.020-0.414 0.020zM26.228 22.267v-5.264h4.4c-0.27 2.507-2.045 4.569-4.4 5.264z"></path>
    </svg>
    <svg fill="currentColor" id="icon-facebook" width="32" height="32" viewBox="0 0 32 32" x="0" y="0">
        <path d="M19 6h5v-6h-5c-3.86 0-7 3.14-7 7v3h-4v6h4v16h6v-16h5l1-6h-6v-3c0-0.542 0.458-1 1-1z"></path>
    </svg>
    <svg fill="currentColor" id="icon-instagram" viewBox="0 0 32 32">
        <path d="M16 2.881c4.275 0 4.781 0.019 6.462 0.094 1.563 0.069 2.406 0.331 2.969 0.55 0.744 0.288 1.281 0.638 1.837 1.194 0.563 0.563 0.906 1.094 1.2 1.838 0.219 0.563 0.481 1.412 0.55 2.969 0.075 1.688 0.094 2.194 0.094 6.463s-0.019 4.781-0.094 6.463c-0.069 1.563-0.331 2.406-0.55 2.969-0.288 0.744-0.637 1.281-1.194 1.837-0.563 0.563-1.094 0.906-1.837 1.2-0.563 0.219-1.413 0.481-2.969 0.55-1.688 0.075-2.194 0.094-6.463 0.094s-4.781-0.019-6.463-0.094c-1.563-0.069-2.406-0.331-2.969-0.55-0.744-0.288-1.281-0.637-1.838-1.194-0.563-0.563-0.906-1.094-1.2-1.837-0.219-0.563-0.481-1.413-0.55-2.969-0.075-1.688-0.094-2.194-0.094-6.463s0.019-4.781 0.094-6.463c0.069-1.563 0.331-2.406 0.55-2.969 0.288-0.744 0.638-1.281 1.194-1.838 0.563-0.563 1.094-0.906 1.838-1.2 0.563-0.219 1.412-0.481 2.969-0.55 1.681-0.075 2.188-0.094 6.463-0.094zM16 0c-4.344 0-4.887 0.019-6.594 0.094-1.7 0.075-2.869 0.35-3.881 0.744-1.056 0.412-1.95 0.956-2.837 1.85-0.894 0.888-1.438 1.781-1.85 2.831-0.394 1.019-0.669 2.181-0.744 3.881-0.075 1.713-0.094 2.256-0.094 6.6s0.019 4.887 0.094 6.594c0.075 1.7 0.35 2.869 0.744 3.881 0.413 1.056 0.956 1.95 1.85 2.837 0.887 0.887 1.781 1.438 2.831 1.844 1.019 0.394 2.181 0.669 3.881 0.744 1.706 0.075 2.25 0.094 6.594 0.094s4.888-0.019 6.594-0.094c1.7-0.075 2.869-0.35 3.881-0.744 1.050-0.406 1.944-0.956 2.831-1.844s1.438-1.781 1.844-2.831c0.394-1.019 0.669-2.181 0.744-3.881 0.075-1.706 0.094-2.25 0.094-6.594s-0.019-4.887-0.094-6.594c-0.075-1.7-0.35-2.869-0.744-3.881-0.394-1.063-0.938-1.956-1.831-2.844-0.887-0.887-1.781-1.438-2.831-1.844-1.019-0.394-2.181-0.669-3.881-0.744-1.712-0.081-2.256-0.1-6.6-0.1v0z"></path>
        <path d="M16 7.781c-4.537 0-8.219 3.681-8.219 8.219s3.681 8.219 8.219 8.219 8.219-3.681 8.219-8.219c0-4.537-3.681-8.219-8.219-8.219zM16 21.331c-2.944 0-5.331-2.387-5.331-5.331s2.387-5.331 5.331-5.331c2.944 0 5.331 2.387 5.331 5.331s-2.387 5.331-5.331 5.331z"></path>
        <path d="M26.462 7.456c0 1.060-0.859 1.919-1.919 1.919s-1.919-0.859-1.919-1.919c0-1.060 0.859-1.919 1.919-1.919s1.919 0.859 1.919 1.919z"></path>
    </svg>
    <svg id="icon-menu" width="32" height="32" viewBox="0 0 32 32" x="0" y="0">
        <path d="M28 13.333H4M28 8H4M28 18.667H4M28 24H4" stroke="#050505" stroke-width="2" stroke-linecap="round" stroke-linejoin="round"/>
    </svg>
    <svg id="icon-close" width="32" height="32" viewBox="0 0 32 32" x="0" y="0">
        <path d="M10 8.586l-7.071-7.071-1.414 1.414 7.071 7.071-7.071 7.071 1.414 1.414 7.071-7.071 7.071 7.071 1.414-1.414-7.071-7.071 7.071-7.071-1.414-1.414-7.071 7.071z"></path>
    </svg>
</svg>